# xmcd
#
# Track frame offsets: 
#        150
#        13720
#        26504
#        41923
#        63211
#        83739
#        105645
#        123025
#        136364
#        152179
#        177434
#
# Disc length: 3197 seconds
#
# Revision: 0
# Processed by: cddbd v1.5.2PL0 Copyright (c) Steve Scherf et al.
# Submitted via: ExactAudioCopy v0.95b4
#
DISCID=880c7b0b
DTITLE=Paul Brandt - A Gift
DYEAR=2006
DGENRE=Country
TTITLE0=Let It Snow
TTITLE1=A Gift
TTITLE2=White Christmas
TTITLE3=Christmas Convoy
TTITLE4=Hands
TTITLE5=Go Tell It On The Mountain
TTITLE6=I'll Be Home For Christmas
TTITLE7=Winter Wonderland
TTITLE8=Mary Did You Know
TTITLE9=We Three Kings
TTITLE10=Hidden Track
EXTD=
EXTT0=
EXTT1=
EXTT2=
EXTT3=
EXTT4=
EXTT5=
EXTT6=
EXTT7=
EXTT8=
EXTT9=
EXTT10=
PLAYORDER=
